<?xml version="1.0" standalone="no"?>
<!DOCTYPE svg PUBLIC "-//W3C//DTD SVG 20010904//EN"
 "http://www.w3.org/TR/2001/REC-SVG-20010904/DTD/svg10.dtd">
<svg version="1.0" xmlns="http://www.w3.org/2000/svg"
 width="768.000000pt" height="730.000000pt" viewBox="0 0 768.000000 730.000000"
 preserveAspectRatio="xMidYMid meet">

<g transform="translate(0.000000,730.000000) scale(0.100000,-0.100000)"
fill="#000000" stroke="none">
<path d="M3660 7285 c-355 -57 -676 -299 -830 -628 -259 -552 -31 -1206 515
-1477 444 -220 961 -126 1305 236 274 288 374 693 264 1071 -158 546 -693 886
-1254 798z m395 -225 c328 -84 578 -332 661 -658 64 -251 11 -534 -140 -746
-56 -78 -185 -200 -259 -244 -153 -92 -299 -132 -479 -132 -248 1 -444 79
-622 249 -184 177 -278 399 -278 656 2 335 174 625 472 793 72 41 220 89 306
101 93 13 248 4 339 -19z"/>
<path d="M3793 6914 c-62 -31 -64 -45 -61 -429 l3 -345 32 -31 c25 -26 39 -32
73 -32 42 0 45 3 286 245 243 242 244 244 244 287 0 62 -41 101 -105 101 -47
0 -48 -1 -180 -131 l-134 -131 -3 204 c-3 223 -6 235 -64 263 -40 19 -51 19
-91 -1z"/>
<path d="M1990 4717 c-205 -70 -330 -243 -330 -458 0 -351 369 -579 685 -424
167 81 266 241 266 431 0 219 -143 403 -356 460 -77 21 -189 17 -265 -9z"/>
<path d="M5410 4721 c-116 -37 -210 -107 -268 -198 -95 -149 -98 -355 -8 -507
40 -67 125 -144 201 -181 221 -109 481 -34 616 176 136 212 69 513 -145 651
-117 75 -273 99 -396 59z"/>
<path d="M1190 4035 c-119 -37 -355 -200 -505 -350 -125 -124 -213 -238 -305
-391 -233 -391 -370 -946 -370 -1501 0 -130 3 -160 21 -208 28 -74 100 -146
174 -174 54 -20 73 -21 565 -21 l509 0 3 -568 c4 -646 1 -619 89 -716 67 -74
130 -100 234 -101 68 0 89 4 137 28 70 35 131 101 158 174 20 54 20 69 18 822
l-3 766 -23 46 c-32 66 -106 135 -169 159 -51 19 -78 20 -559 20 l-506 0 7 73
c34 357 141 690 300 932 78 119 215 268 232 251 4 -3 86 -129 182 -278 158
-243 182 -276 225 -303 l49 -30 555 -3 c387 -2 571 0 609 8 72 15 145 83 163
150 27 102 -26 212 -125 256 -11 5 -240 11 -510 14 l-489 5 -143 390 c-80 219
-155 407 -171 430 -78 111 -222 160 -352 120z"/>
<path d="M6292 4032 c-62 -23 -116 -64 -155 -118 -15 -22 -90 -210 -170 -429
l-143 -390 -489 -5 c-270 -3 -499 -9 -510 -14 -99 -44 -152 -154 -125 -256 18
-67 91 -135 163 -150 38 -8 222 -10 609 -8 l555 3 49 30 c43 27 67 60 225 303
96 149 178 275 182 278 17 18 150 -126 232 -251 104 -158 175 -325 230 -540
32 -123 75 -375 75 -437 l0 -27 -517 -3 -518 -3 -47 -23 c-60 -30 -120 -90
-150 -150 l-23 -47 -3 -767 c-2 -752 -2 -767 18 -821 27 -73 88 -139 158 -174
48 -24 69 -28 137 -28 104 1 167 27 234 101 88 96 85 71 89 716 l3 567 527 3
527 3 43 23 c58 31 114 88 143 148 23 48 24 55 23 274 -2 800 -280 1516 -746
1920 -101 87 -278 207 -371 251 -89 41 -178 48 -255 21z"/>
<path d="M3350 3063 c-26 -24 -45 -72 -128 -318 l-97 -290 -300 -5 c-312 -5
-333 -8 -355 -50 -5 -10 -10 -37 -10 -60 0 -33 6 -48 29 -71 l29 -29 381 0
380 0 120 363 c67 200 121 376 121 391 0 18 -12 40 -34 62 -44 44 -92 47 -136
7z"/>
<path d="M4194 3056 c-23 -23 -34 -43 -34 -62 0 -16 54 -192 121 -391 l121
-363 380 0 380 0 29 29 c46 47 39 133 -14 163 -16 9 -105 14 -322 18 l-300 5
-97 290 c-83 246 -102 294 -128 318 -44 40 -92 37 -136 -7z"/>
<path d="M2460 1705 l0 -315 1380 0 1380 0 0 315 0 315 -1380 0 -1380 0 0
-315z"/>
</g>
</svg>
