<?xml version="1.0" standalone="no"?>
<!DOCTYPE svg PUBLIC "-//W3C//DTD SVG 20010904//EN"
 "http://www.w3.org/TR/2001/REC-SVG-20010904/DTD/svg10.dtd">
<svg version="1.0" xmlns="http://www.w3.org/2000/svg"
 width="500.000000pt" height="500.000000pt" viewBox="0 0 500.000000 500.000000"
 preserveAspectRatio="xMidYMid meet">

<g transform="translate(0.000000,500.000000) scale(0.100000,-0.100000)"
fill="#000000" stroke="none">
<path d="M1152 3388 c-7 -7 -12 -38 -12 -75 l0 -63 75 0 76 0 -3 73 -3 72 -60
3 c-38 2 -65 -2 -73 -10z"/>
<path d="M3723 3393 c-9 -3 -13 -28 -13 -74 l0 -69 75 0 75 0 0 69 c0 54 -4
70 -16 75 -18 7 -103 7 -121 -1z"/>
<path d="M525 3379 c-55 -4 -174 -16 -265 -25 l-165 -18 55 -13 c100 -23 353
-62 480 -74 137 -13 345 -7 428 11 52 12 52 12 52 50 l0 37 -58 12 c-147 29
-331 36 -527 20z"/>
<path d="M1528 3380 c-42 -4 -106 -13 -142 -20 l-66 -12 0 -38 0 -39 58 -13
c85 -19 417 -16 566 6 127 18 377 64 383 69 4 5 -281 35 -437 47 -141 11 -249
11 -362 0z"/>
<path d="M3105 3380 c-224 -17 -438 -44 -419 -51 35 -13 385 -68 508 -80 132
-13 352 -7 434 11 51 12 52 12 52 49 l0 38 -92 16 c-112 20 -346 28 -483 17z"/>
<path d="M4104 3380 c-44 -4 -110 -13 -147 -20 l-67 -12 0 -38 c0 -38 0 -38
53 -50 150 -33 426 -22 732 31 252 43 252 42 64 62 -342 36 -468 42 -635 27z"/>
<path d="M1081 3201 c-6 -11 -11 -54 -11 -95 l0 -76 145 0 146 0 -3 93 -3 92
-132 3 c-122 2 -133 1 -142 -17z"/>
<path d="M3652 3208 c-7 -7 -12 -44 -12 -95 l0 -83 145 0 145 0 0 79 c0 44 -3
86 -6 95 -5 13 -27 16 -133 16 -85 0 -131 -4 -139 -12z"/>
<path d="M2335 3133 c-215 -13 -439 -48 -640 -101 l-140 -37 -267 -3 -268 -3
0 -69 0 -70 235 0 235 0 147 -67 148 -68 177 -3 177 -4 11 -34 c7 -20 37 -73
68 -120 l56 -84 231 0 230 0 32 48 c28 41 70 125 86 174 5 15 27 17 174 20
l168 3 165 68 165 67 228 0 227 0 0 70 0 69 -272 4 -273 3 -159 42 c-299 78
-643 113 -941 95z m-607 -218 c52 -27 107 -73 99 -82 -11 -10 -92 36 -127 72
-40 42 -35 43 28 10z m269 -18 c38 -25 92 -77 79 -77 -20 0 -106 53 -136 85
-34 35 -34 36 -8 26 15 -6 44 -21 65 -34z m98 14 c28 -16 64 -43 80 -61 l30
-31 -28 10 c-52 20 -82 39 -116 75 -42 43 -33 45 34 7z m863 7 c-17 -26 -115
-88 -138 -88 -21 1 52 64 104 89 51 26 52 26 34 -1z m117 -2 c-23 -34 -139
-105 -152 -93 -11 11 129 110 165 117 1 0 -5 -11 -13 -24z m224 -12 c-34 -35
-97 -74 -120 -74 -21 0 33 50 86 81 67 38 76 36 34 -7z m-1428 -3 c65 -44 94
-69 87 -76 -10 -10 -100 40 -132 74 -39 40 -15 41 45 2z m1299 -6 c-32 -33
-116 -82 -125 -73 -13 13 119 108 149 108 6 0 -5 -16 -24 -35z"/>
<path d="M1856 2603 c-39 -184 -60 -432 -70 -830 l-4 -173 49 0 49 0 0 218 c0
233 14 365 50 473 28 82 88 200 143 277 31 45 43 70 39 88 -4 24 -5 24 -122
24 l-117 0 -17 -77z"/>
<path d="M2890 2650 c0 -18 16 -53 45 -94 62 -89 130 -235 156 -336 19 -73 22
-121 26 -352 l5 -268 48 0 49 0 -5 188 c-10 397 -27 602 -66 790 l-21 102
-118 0 -119 0 0 -30z"/>
<path d="M2408 2398 c-3 -35 -6 -42 -26 -43 -13 -1 -26 4 -29 12 -4 9 -27 13
-79 13 l-74 0 0 -45 0 -45 71 0 c50 0 75 4 86 15 27 28 48 14 51 -33 l3 -43
92 3 92 3 5 40 c4 32 9 40 25 40 13 0 21 8 23 22 3 18 -1 21 -22 19 -24 -3
-26 0 -26 40 l0 44 -94 0 -95 0 -3 -42z"/>
<path d="M2373 2200 c-40 -13 -80 -60 -89 -105 -3 -20 -4 -81 -2 -138 6 -166
31 -187 220 -187 193 0 218 26 218 222 0 94 -3 118 -20 145 -35 57 -62 68
-185 70 -60 1 -124 -2 -142 -7z m186 -115 c29 -15 61 -68 61 -103 0 -26 -40
-84 -70 -100 -32 -16 -96 -9 -122 15 -106 94 5 254 131 188z"/>
<path d="M2506 2046 c7 -30 -33 -76 -66 -76 -23 0 -25 -8 -6 -32 20 -27 62
-39 93 -27 57 22 72 91 28 134 -32 33 -57 33 -49 1z"/>
</g>
</svg>
